<svg width="1095" height="552" viewBox="0 0 1095 552" fill="none" xmlns="http://www.w3.org/2000/svg">
<g clip-path="url(#clip0_234_297)">
<path d="M692.953 109.617C692.953 86.0248 700.143 32.5117 733.217 32.5117C744.433 32.5117 751.911 40.2798 755.362 50.3494C757.088 56.3912 758.813 64.447 761.402 71.6396C761.689 72.7904 762.552 76.5306 764.853 74.8043C781.534 59.8437 802.241 45.1707 825.824 45.1707C847.106 45.1707 866.088 58.6929 866.088 80.5585C866.088 97.533 852.571 109.041 837.903 115.083L793.613 133.209C786.135 136.373 776.932 141.264 772.906 148.457C770.03 153.06 768.879 158.527 766.579 163.418C760.539 174.063 743.283 180.68 731.779 180.68C698.993 180.68 692.953 132.058 692.953 109.617Z" fill="#00CCC5"/>
<path d="M602.529 103.574C602.529 107.602 603.68 116.521 609.432 116.521C615.471 116.521 619.21 109.328 619.21 103.574C619.21 98.683 615.471 92.9289 609.432 92.9289C606.556 92.9289 603.68 96.0937 602.529 98.683V103.574ZM524.59 112.206C524.59 73.0773 555.651 39.9912 595.339 39.9912C645.094 39.9912 687.084 87.4625 687.084 136.085C687.084 148.169 683.057 159.101 678.743 170.61C677.018 176.076 673.279 178.378 669.54 178.665C662.638 179.241 654.01 172.911 651.134 165.719L645.382 154.211C644.519 152.772 643.944 151.909 642.218 151.909C639.342 151.909 636.466 153.923 633.878 155.649C616.909 169.171 604.255 180.104 582.397 180.104C546.16 180.104 524.59 145.579 524.59 112.206Z" fill="#25B942"/>
<path d="M418.51 252.318C418.51 247.714 419.661 243.686 423.112 239.659L443.244 216.93C450.146 209.45 453.022 199.668 453.022 189.886C453.022 184.995 453.022 175.788 446.12 174.349C442.381 174.349 425.125 173.486 421.386 173.199C415.059 172.623 408.157 171.472 402.405 168.883C377.383 157.087 359.84 127.166 359.84 99.8339C359.84 60.4184 390.901 37.1143 428.576 37.1143C457.048 37.1143 480.344 47.7593 492.136 75.6667C503.64 100.985 505.365 129.18 505.365 156.799V173.486C505.365 176.363 503.927 190.461 503.64 193.338C502.777 201.681 499.901 211.176 497.025 219.231C488.109 242.823 477.756 260.086 452.447 267.278C447.845 268.429 443.244 269.292 438.642 269.292C427.713 269.292 418.51 264.689 418.51 252.318ZM431.74 101.848C431.74 108.465 436.341 113.068 442.956 113.068C449.858 113.068 453.885 107.602 453.885 100.697C453.885 94.0798 446.12 92.3536 439.793 92.3536C435.479 92.3536 431.74 97.82 431.74 101.848Z" fill="#FFBB0F"/>
<path d="M304.612 29.9209C325.607 29.9209 335.097 40.8537 342.287 63.007C349.19 84.0094 359.543 120.836 357.243 148.455C356.092 161.69 352.353 173.486 332.509 175.787C323.306 176.938 313.527 174.636 306.913 168.595C305.475 167.444 300.873 160.251 293.683 163.991C281.604 170.321 262.335 178.089 245.654 178.089C195.036 178.089 162.25 147.88 162.25 99.5455C162.25 79.4061 166.564 58.4037 181.807 45.457C190.722 37.9766 197.625 34.5242 212.58 34.5242C224.947 34.5242 232.712 44.3061 234.15 56.102L237.889 86.5988C238.464 91.202 240.477 102.135 247.092 102.135C255.432 102.135 260.609 88.0373 263.197 81.4201C264.06 79.4061 271.25 60.4176 272.401 58.4037C278.153 44.3061 288.219 29.9209 304.612 29.9209Z" fill="#FF8C00"/>
<path d="M80.8155 178.378C57.2323 178.378 0 170.034 0 136.948C0 130.043 3.73879 117.097 19.5568 117.097C33.3615 117.097 47.1663 126.016 60.3959 126.016C63.2719 126.016 66.1479 124.865 66.1479 121.412C66.1479 99.834 14.0924 96.3814 14.0924 61.5691C14.0924 21.8658 46.0159 1.72656 86.5675 1.72656C92.8947 1.72656 99.2218 2.01427 105.261 3.45278C128.269 9.20689 142.937 23.3044 142.937 47.7593C142.937 63.8709 131.145 71.6389 116.765 71.6389C106.699 71.6389 96.921 68.1863 86.5675 68.1863C83.1163 68.1863 80.2403 72.2142 80.2403 76.2421C80.2403 81.4208 85.4171 84.2979 89.4435 85.7365C112.451 91.4906 146.676 97.2447 146.676 128.893C146.676 163.13 111.013 177.802 80.8155 178.378Z" fill="#FF5555"/>
</g>
<g clip-path="url(#clip1_234_297)">
<path d="M1016.01 436.773C1013.32 432.566 1012.43 410.931 1003.48 415.438C1000.8 416.64 998.11 418.743 997.216 421.147C990.355 434.97 984.687 452.399 965.596 452.399C953.664 452.399 943.82 443.684 940.837 432.566C939.345 428.96 936.66 418.743 936.66 418.443C933.976 401.916 931.291 385.99 931.589 368.261L936.66 318.079C938.152 306.96 939.942 273.606 956.647 273.606C968.28 273.606 977.528 282.32 979.616 293.438L984.687 316.576C986.178 322.586 991.548 326.793 1005.87 326.192C1010.94 325.891 1026.45 320.783 1027.34 309.965C1027.34 291.034 1028.84 283.823 1029.73 279.616C1031.52 272.103 1036.89 270 1044.05 270C1050.91 270 1055.68 273.005 1061.65 276.911C1066.72 280.217 1070.6 285.025 1073.58 289.832C1087.3 309.665 1094.76 332.803 1094.76 357.744V360.148C1094.76 386.29 1087.3 403.719 1073.58 433.468C1068.21 445.487 1050.91 455.704 1038.08 455.704C1027.34 455.704 1018.1 446.99 1016.01 436.773ZM1004.08 386.891H1004.37C1009.45 391.098 1015.11 394.704 1021.97 394.704C1026.45 394.704 1040.17 391.399 1040.17 385.389C1040.17 382.384 1038.38 380.28 1035.1 380.28C1030.63 380.28 1027.05 384.187 1022.27 384.187C1018.1 384.187 1015.11 381.783 1012.13 379.379C1013.62 377.276 1016.01 373.369 1016.01 370.364C1016.01 366.458 1013.32 364.054 1009.45 363.753C999.005 362.551 995.724 364.955 995.724 371.867C995.724 373.67 997.812 376.074 999.304 377.877C995.426 380.28 989.758 383.285 985.582 383.285C982.002 383.285 979.616 380.881 976.036 380.881C973.352 380.881 971.562 383.285 971.562 385.389C971.562 392 980.511 393.803 985.284 393.803C992.144 393.803 997.216 390.497 1003.18 387.192L1004.08 386.891ZM1038.08 354.138C1038.08 357.744 1044.05 361.95 1047.03 361.95C1051.21 361.95 1053.59 359.246 1053.59 355.039C1053.59 351.133 1050.91 348.128 1046.73 348.128C1042.86 348.128 1038.08 349.931 1038.08 354.138ZM964.104 359.246C964.104 362.852 966.789 366.157 970.667 366.157C973.65 366.157 976.633 364.354 976.633 361.049C976.633 356.842 973.65 353.236 970.07 353.236C966.49 353.236 964.104 355.34 964.104 359.246ZM1067.61 376.675C1074.48 376.975 1078.95 377.877 1084.32 378.778C1089.99 377.576 1089.99 371.566 1084.92 369.763C1080.14 369.162 1074.77 367.96 1068.21 367.66C1062.25 368.261 1061.35 376.074 1067.61 376.675ZM1066.72 395.906C1072.69 395.906 1075.97 396.808 1080.44 397.709C1086.11 396.507 1086.11 390.497 1081.04 388.694C1077.46 388.093 1072.98 386.891 1067.32 386.891C1061.35 387.492 1060.46 395.305 1066.72 395.906ZM940.837 382.684C947.101 382.384 947.399 381.482 953.365 381.182C959.033 379.98 958.138 371.867 952.769 372.468C945.908 373.069 947.698 373.369 941.433 373.67C935.467 374.271 934.572 382.083 940.837 382.684ZM943.223 402.216C949.487 401.916 952.172 400.714 958.138 400.413C963.806 399.211 963.806 391.399 958.735 391.399C952.47 391.399 949.786 393.202 943.82 393.202C937.854 393.803 936.959 401.615 943.223 402.216Z" fill="#8D20D1"/>
<path d="M751.32 367.359C751.32 332.502 758.48 309.064 788.31 289.231C802.926 279.616 817.842 275.108 834.546 275.108H838.424C840.214 275.108 850.655 276.31 852.743 276.911C859.306 277.813 867.956 279.616 873.922 283.522C890.031 293.739 895.997 301.552 895.997 322.586V327.394C895.997 329.197 894.505 335.808 891.224 335.808C881.38 335.808 876.905 331.601 875.414 330.699C868.255 326.793 860.797 322.586 852.743 322.586C846.479 322.586 840.811 324.99 835.441 327.694C821.421 335.808 818.736 349.63 818.736 364.955C818.736 368.261 818.438 379.379 826.194 378.778C830.072 378.478 835.441 374.872 835.441 370.364V369.763C830.37 366.458 824.404 361.35 824.404 354.739C824.404 343.02 838.723 342.419 847.374 342.118C853.936 341.517 856.621 341.517 862.587 341.517C893.61 341.517 909.122 364.955 909.122 394.404C909.122 431.665 877.204 460.211 839.319 460.211C785.923 460.211 751.32 426.256 751.32 367.359Z" fill="#6434D4"/>
<path d="M645.596 438.877C645.596 430.163 656.036 420.547 661.107 411.833L663.494 384.187V365.256L661.107 309.966C659.317 306.961 661.107 303.656 658.124 301.552C650.07 296.143 637.84 301.853 637.84 287.129C637.84 277.813 648.877 271.503 657.528 271.503L720.171 275.409C728.524 276.311 734.49 283.222 734.49 291.335C734.49 301.853 723.154 302.454 719.574 312.069C719.574 312.37 719.276 314.173 719.276 315.074C717.188 342.419 717.188 370.064 717.188 397.71C717.188 403.419 717.188 410.03 720.171 415.138C723.751 418.744 726.435 423.552 729.717 427.759C731.506 429.862 732.7 432.567 732.7 434.971C732.7 443.384 723.452 450.296 715.995 451.498C707.046 451.498 697.5 451.498 688.253 451.798C684.077 452.399 680.199 454.803 676.022 454.803H663.494C657.229 454.803 645.596 445.488 645.596 438.877Z" fill="#435DEC"/>
<path d="M550.337 436.773C547.652 432.566 546.757 410.931 537.808 415.438C535.123 416.64 532.439 418.743 531.544 421.147C524.683 434.97 519.015 452.399 499.924 452.399C487.992 452.399 478.148 443.684 475.165 432.566C473.673 428.96 470.988 418.743 470.988 418.443C468.304 401.916 465.619 385.99 465.917 368.261L470.988 318.079C472.48 306.96 474.27 273.606 490.975 273.606C502.608 273.606 511.856 282.32 513.944 293.438L519.015 316.576C520.506 322.586 525.876 326.793 540.194 326.192C545.265 325.891 560.777 320.783 561.672 309.965C561.672 291.034 563.164 283.823 564.058 279.616C565.848 272.103 571.218 270 578.377 270C585.238 270 590.011 273.005 595.977 276.911C601.048 280.217 604.926 285.025 607.909 289.832C621.631 309.665 629.088 332.803 629.088 357.744V360.148C629.088 386.29 621.631 403.719 607.909 433.468C602.539 445.487 585.238 455.704 572.411 455.704C561.672 455.704 552.425 446.99 550.337 436.773ZM538.405 386.891H538.703C543.774 391.098 549.442 394.704 556.303 394.704C560.777 394.704 574.499 391.399 574.499 385.389C574.499 382.384 572.709 380.28 569.428 380.28C564.953 380.28 561.374 384.187 556.601 384.187C552.425 384.187 549.442 381.783 546.459 379.379C547.95 377.276 550.337 373.369 550.337 370.364C550.337 366.458 547.652 364.054 543.774 363.753C533.333 362.551 530.052 364.955 530.052 371.867C530.052 373.67 532.14 376.074 533.632 377.877C529.754 380.28 524.086 383.285 519.91 383.285C516.33 383.285 513.944 380.881 510.364 380.881C507.679 380.881 505.89 383.285 505.89 385.389C505.89 392 514.839 393.803 519.612 393.803C526.472 393.803 531.544 390.497 537.51 387.192L538.405 386.891ZM572.411 354.138C572.411 357.744 578.377 361.95 581.36 361.95C585.536 361.95 587.923 359.246 587.923 355.039C587.923 351.133 585.238 348.128 581.062 348.128C577.184 348.128 572.411 349.931 572.411 354.138ZM498.432 359.246C498.432 362.852 501.117 366.157 504.995 366.157C507.978 366.157 510.961 364.354 510.961 361.049C510.961 356.842 507.978 353.236 504.398 353.236C500.819 353.236 498.432 355.34 498.432 359.246ZM601.943 376.675C608.804 376.975 613.278 377.877 618.648 378.778C624.315 377.576 624.315 371.566 619.244 369.763C614.471 369.162 609.102 367.96 602.539 367.66C596.573 368.261 595.678 376.074 601.943 376.675ZM601.048 395.906C607.014 395.906 610.295 396.808 614.77 397.709C620.437 396.507 620.437 390.497 615.366 388.694C611.787 388.093 607.312 386.891 601.644 386.891C595.678 387.492 594.784 395.305 601.048 395.906ZM475.165 382.684C481.429 382.384 481.727 381.482 487.693 381.182C493.361 379.98 492.466 371.867 487.097 372.468C480.236 373.069 482.026 373.369 475.761 373.67C469.795 374.271 468.9 382.083 475.165 382.684ZM477.551 402.216C483.815 401.916 486.5 400.714 492.466 400.413C498.134 399.211 498.134 391.399 493.063 391.399C486.798 391.399 484.114 393.202 478.148 393.202C472.182 393.803 471.287 401.615 477.551 402.216Z" fill="#27B7FF"/>
</g>
<defs>
<clipPath id="clip0_234_297">
<rect width="917" height="270" fill="white"/>
</clipPath>
<clipPath id="clip1_234_297">
<rect width="662" height="282" fill="white" transform="translate(433 270)"/>
</clipPath>
</defs>
</svg>
